<mxfile host="app.diagrams.net" agent="Mozilla/5.0 (Macintosh; Intel Mac OS X 10_15_7) AppleWebKit/537.36 (KHTML, like Gecko) Chrome/134.0.0.0 Safari/537.36" version="26.2.10">
  <diagram name="Page-1" id="aaaa8250-4180-3840-79b5-4cada1eebb92">
    <mxGraphModel dx="3038" dy="2282" grid="1" gridSize="10" guides="1" tooltips="1" connect="1" arrows="1" fold="1" page="1" pageScale="1" pageWidth="850" pageHeight="1100" background="light-dark(#FFFFFF,#333333)" math="0" shadow="0">
      <root>
        <mxCell id="0" />
        <mxCell id="1" parent="0" />
        <mxCell id="FHvhdD4eV2q8mIjca2SJ-8" value="" style="verticalLabelPosition=bottom;html=1;verticalAlign=top;strokeWidth=1;align=center;outlineConnect=0;dashed=0;outlineConnect=0;shape=mxgraph.aws3d.dataCenter;strokeColor=#5E5E5E;aspect=fixed;" vertex="1" parent="1">
          <mxGeometry x="900" y="520" width="123" height="142" as="geometry" />
        </mxCell>
        <mxCell id="FHvhdD4eV2q8mIjca2SJ-9" value="" style="verticalLabelPosition=bottom;html=1;verticalAlign=top;strokeWidth=1;align=center;outlineConnect=0;dashed=0;outlineConnect=0;shape=mxgraph.aws3d.dataCenter;strokeColor=#5E5E5E;aspect=fixed;" vertex="1" parent="1">
          <mxGeometry x="610" y="300" width="123" height="142" as="geometry" />
        </mxCell>
        <mxCell id="FHvhdD4eV2q8mIjca2SJ-10" value="" style="verticalLabelPosition=bottom;html=1;verticalAlign=top;strokeWidth=1;align=center;outlineConnect=0;dashed=0;outlineConnect=0;shape=mxgraph.aws3d.dataCenter;strokeColor=#5E5E5E;aspect=fixed;" vertex="1" parent="1">
          <mxGeometry x="260" y="100" width="123" height="142" as="geometry" />
        </mxCell>
        <mxCell id="FHvhdD4eV2q8mIjca2SJ-19" value="" style="group" vertex="1" connectable="0" parent="1">
          <mxGeometry x="830" y="340" width="88.25" height="114.30000000000001" as="geometry" />
        </mxCell>
        <mxCell id="FHvhdD4eV2q8mIjca2SJ-15" value="" style="verticalLabelPosition=bottom;html=1;verticalAlign=top;strokeWidth=1;align=center;outlineConnect=0;dashed=0;outlineConnect=0;shape=mxgraph.aws3d.file;aspect=fixed;strokeColor=#292929;" vertex="1" parent="FHvhdD4eV2q8mIjca2SJ-19">
          <mxGeometry x="70" y="-220" width="48.25" height="110.6" as="geometry" />
        </mxCell>
        <mxCell id="FHvhdD4eV2q8mIjca2SJ-16" value="" style="verticalLabelPosition=bottom;html=1;verticalAlign=top;strokeWidth=1;align=center;outlineConnect=0;dashed=0;outlineConnect=0;shape=mxgraph.aws3d.file;aspect=fixed;strokeColor=#292929;" vertex="1" parent="FHvhdD4eV2q8mIjca2SJ-19">
          <mxGeometry x="50" y="-220" width="48.25" height="110.6" as="geometry" />
        </mxCell>
        <mxCell id="FHvhdD4eV2q8mIjca2SJ-21" value="" style="verticalLabelPosition=bottom;html=1;verticalAlign=top;strokeWidth=1;align=center;outlineConnect=0;dashed=0;outlineConnect=0;shape=mxgraph.aws3d.decider;fillColor=#ECECEC;strokeColor=#5E5E5E;aspect=fixed;" vertex="1" parent="1">
          <mxGeometry x="1300" y="-150" width="127.28" height="86" as="geometry" />
        </mxCell>
        <mxCell id="FHvhdD4eV2q8mIjca2SJ-22" value="" style="verticalLabelPosition=bottom;html=1;verticalAlign=top;strokeWidth=1;align=center;outlineConnect=0;dashed=0;outlineConnect=0;shape=mxgraph.aws3d.customerGateway;fillColor=#ECECEC;strokeColor=#5E5E5E;aspect=fixed;" vertex="1" parent="1">
          <mxGeometry x="1070" y="-20" width="116.7" height="102.8" as="geometry" />
        </mxCell>
        <mxCell id="FHvhdD4eV2q8mIjca2SJ-23" value="" style="verticalLabelPosition=bottom;html=1;verticalAlign=top;strokeWidth=1;align=center;outlineConnect=0;dashed=0;outlineConnect=0;shape=mxgraph.aws3d.cloudfront;fillColor=#ECECEC;strokeColor=#5E5E5E;aspect=fixed;" vertex="1" parent="1">
          <mxGeometry x="-180" y="760" width="91.57" height="149.8" as="geometry" />
        </mxCell>
        <mxCell id="FHvhdD4eV2q8mIjca2SJ-24" value="" style="verticalLabelPosition=bottom;html=1;verticalAlign=top;strokeWidth=1;align=center;outlineConnect=0;dashed=0;outlineConnect=0;shape=mxgraph.aws3d.elasticLoadBalancing;fillColor=#ECECEC;strokeColor=#5E5E5E;aspect=fixed;" vertex="1" parent="1">
          <mxGeometry x="410" y="454.30000000000007" width="92" height="88.17" as="geometry" />
        </mxCell>
        <mxCell id="FHvhdD4eV2q8mIjca2SJ-25" value="" style="verticalLabelPosition=bottom;html=1;verticalAlign=top;strokeWidth=1;align=center;outlineConnect=0;dashed=0;outlineConnect=0;shape=mxgraph.aws3d.internetGateway;fillColor=#ECECEC;strokeColor=#5E5E5E;aspect=fixed;" vertex="1" parent="1">
          <mxGeometry x="130" y="600" width="116.7" height="102.8" as="geometry" />
        </mxCell>
        <mxCell id="FHvhdD4eV2q8mIjca2SJ-28" value="Relational DB" style="text;strokeColor=none;fillColor=none;html=1;fontSize=24;fontStyle=1;verticalAlign=middle;align=center;" vertex="1" parent="1">
          <mxGeometry x="918.25" y="470" width="100" height="40" as="geometry" />
        </mxCell>
        <mxCell id="FHvhdD4eV2q8mIjca2SJ-29" value="Vectorstore" style="text;strokeColor=none;fillColor=none;html=1;fontSize=24;fontStyle=1;verticalAlign=middle;align=center;" vertex="1" parent="1">
          <mxGeometry x="621.5" y="230.60000000000002" width="100" height="40" as="geometry" />
        </mxCell>
        <mxCell id="FHvhdD4eV2q8mIjca2SJ-32" value="Graph DB" style="text;strokeColor=none;fillColor=none;html=1;fontSize=24;fontStyle=1;verticalAlign=middle;align=center;" vertex="1" parent="1">
          <mxGeometry x="271.5" y="40" width="100" height="40" as="geometry" />
        </mxCell>
        <mxCell id="FHvhdD4eV2q8mIjca2SJ-35" value="Routing" style="text;strokeColor=none;fillColor=none;html=1;fontSize=24;fontStyle=1;verticalAlign=middle;align=center;" vertex="1" parent="1">
          <mxGeometry x="406" y="560" width="100" height="40" as="geometry" />
        </mxCell>
        <mxCell id="FHvhdD4eV2q8mIjca2SJ-36" value="Query Translation" style="text;strokeColor=none;fillColor=none;html=1;fontSize=24;fontStyle=1;verticalAlign=middle;align=center;" vertex="1" parent="1">
          <mxGeometry x="130" y="710.8" width="100" height="40" as="geometry" />
        </mxCell>
        <mxCell id="FHvhdD4eV2q8mIjca2SJ-37" value="Question" style="text;strokeColor=none;fillColor=none;html=1;fontSize=24;fontStyle=1;verticalAlign=middle;align=center;" vertex="1" parent="1">
          <mxGeometry x="-180" y="927.8" width="100" height="40" as="geometry" />
        </mxCell>
        <mxCell id="FHvhdD4eV2q8mIjca2SJ-38" value="Documents" style="text;strokeColor=none;fillColor=none;html=1;fontSize=24;fontStyle=1;verticalAlign=middle;align=center;" vertex="1" parent="1">
          <mxGeometry x="860" y="250" width="100" height="40" as="geometry" />
        </mxCell>
        <mxCell id="FHvhdD4eV2q8mIjca2SJ-39" value="Retrieval" style="text;strokeColor=none;fillColor=none;html=1;fontSize=24;fontStyle=1;verticalAlign=middle;align=center;" vertex="1" parent="1">
          <mxGeometry x="1100" y="82.8" width="100" height="40" as="geometry" />
        </mxCell>
        <mxCell id="FHvhdD4eV2q8mIjca2SJ-40" value="Generation" style="text;strokeColor=none;fillColor=none;html=1;fontSize=24;fontStyle=1;verticalAlign=middle;align=center;" vertex="1" parent="1">
          <mxGeometry x="1320" y="-40" width="100" height="40" as="geometry" />
        </mxCell>
        <mxCell id="FHvhdD4eV2q8mIjca2SJ-17" value="" style="verticalLabelPosition=bottom;html=1;verticalAlign=top;strokeWidth=1;align=center;outlineConnect=0;dashed=0;outlineConnect=0;shape=mxgraph.aws3d.file;aspect=fixed;strokeColor=#292929;" vertex="1" parent="1">
          <mxGeometry x="860" y="120" width="48.25" height="110.6" as="geometry" />
        </mxCell>
        <mxCell id="FHvhdD4eV2q8mIjca2SJ-44" value="" style="edgeStyle=isometricEdgeStyle;endArrow=none;html=1;rounded=0;flowAnimation=1;strokeWidth=5;flowAnimationTimingFunction=linear;flowAnimationDuration=300;fixDash=0;flowAnimationDirection=normal;noJump=0;sourcePerimeterSpacing=0;jumpStyle=none;shadow=0;curved=0;strokeColor=default;orthogonalLoop=0;orthogonal=0;enumerate=0;enumerateValue=9;linejoin=round;linecap=round;" edge="1" parent="1" source="FHvhdD4eV2q8mIjca2SJ-23" target="FHvhdD4eV2q8mIjca2SJ-25">
          <mxGeometry width="50" height="100" relative="1" as="geometry">
            <mxPoint x="420" y="520" as="sourcePoint" />
            <mxPoint x="470" y="420" as="targetPoint" />
          </mxGeometry>
        </mxCell>
        <mxCell id="FHvhdD4eV2q8mIjca2SJ-45" value="" style="edgeStyle=isometricEdgeStyle;endArrow=none;html=1;rounded=0;flowAnimation=1;strokeWidth=5;flowAnimationTimingFunction=linear;flowAnimationDuration=300;fixDash=0;flowAnimationDirection=normal;noJump=0;sourcePerimeterSpacing=0;jumpStyle=none;shadow=0;curved=0;strokeColor=default;orthogonalLoop=0;orthogonal=0;enumerate=0;enumerateValue=9;linejoin=round;linecap=round;" edge="1" parent="1" source="FHvhdD4eV2q8mIjca2SJ-25" target="FHvhdD4eV2q8mIjca2SJ-24">
          <mxGeometry width="50" height="100" relative="1" as="geometry">
            <mxPoint x="-78" y="818" as="sourcePoint" />
            <mxPoint x="140" y="695" as="targetPoint" />
          </mxGeometry>
        </mxCell>
        <mxCell id="FHvhdD4eV2q8mIjca2SJ-46" value="" style="edgeStyle=isometricEdgeStyle;endArrow=none;html=1;rounded=0;flowAnimation=1;strokeWidth=5;flowAnimationTimingFunction=linear;flowAnimationDuration=300;fixDash=0;flowAnimationDirection=normal;noJump=0;sourcePerimeterSpacing=0;jumpStyle=none;shadow=0;curved=0;strokeColor=default;orthogonalLoop=0;orthogonal=0;enumerate=0;enumerateValue=9;linejoin=round;linecap=round;" edge="1" parent="1" source="FHvhdD4eV2q8mIjca2SJ-24" target="FHvhdD4eV2q8mIjca2SJ-10">
          <mxGeometry width="50" height="100" relative="1" as="geometry">
            <mxPoint x="97" y="437.5" as="sourcePoint" />
            <mxPoint x="260" y="344.5" as="targetPoint" />
          </mxGeometry>
        </mxCell>
        <mxCell id="FHvhdD4eV2q8mIjca2SJ-47" value="" style="edgeStyle=isometricEdgeStyle;endArrow=none;html=1;rounded=0;flowAnimation=1;strokeWidth=5;flowAnimationTimingFunction=linear;flowAnimationDuration=300;fixDash=0;flowAnimationDirection=normal;noJump=0;sourcePerimeterSpacing=0;jumpStyle=none;shadow=0;curved=0;strokeColor=default;orthogonalLoop=0;orthogonal=0;enumerate=0;enumerateValue=9;linejoin=round;linecap=round;" edge="1" parent="1" source="FHvhdD4eV2q8mIjca2SJ-24" target="FHvhdD4eV2q8mIjca2SJ-9">
          <mxGeometry width="50" height="100" relative="1" as="geometry">
            <mxPoint x="512" y="482" as="sourcePoint" />
            <mxPoint x="270" y="217" as="targetPoint" />
          </mxGeometry>
        </mxCell>
        <mxCell id="FHvhdD4eV2q8mIjca2SJ-48" value="" style="edgeStyle=isometricEdgeStyle;endArrow=none;html=1;rounded=0;flowAnimation=1;strokeWidth=5;flowAnimationTimingFunction=linear;flowAnimationDuration=300;fixDash=0;flowAnimationDirection=normal;noJump=0;sourcePerimeterSpacing=0;jumpStyle=none;shadow=0;curved=0;strokeColor=default;orthogonalLoop=0;orthogonal=0;enumerate=0;enumerateValue=9;linejoin=round;linecap=round;" edge="1" parent="1" target="FHvhdD4eV2q8mIjca2SJ-8">
          <mxGeometry width="50" height="100" relative="1" as="geometry">
            <mxPoint x="500" y="470" as="sourcePoint" />
            <mxPoint x="620" y="417" as="targetPoint" />
          </mxGeometry>
        </mxCell>
      </root>
    </mxGraphModel>
  </diagram>
</mxfile>
